<svg version="1.1" id="Layer_1" xmlns="http://www.w3.org/2000/svg" xmlns:xlink="http://www.w3.org/1999/xlink" x="0px" y="0px"
	 width="100%" viewBox="0 0 200 60" enable-background="new 0 0 200 60" xml:space="preserve">
<path fill="#2B3249" opacity="1.000000" stroke="none" 
	d="
M179.000000,1.000000 
	C186.302628,1.000000 193.605270,1.000000 200.953949,1.000000 
	C200.953949,20.885487 200.953949,40.771095 200.953949,61.000000 
	C193.649384,61.000000 186.293427,61.000000 178.468735,60.537960 
	C178.001389,56.085411 178.002777,52.094898 178.468353,48.038223 
	C184.857773,47.972061 190.783020,47.972061 196.699326,47.972061 
	C196.699326,35.825794 196.699326,24.576313 196.699326,12.607767 
	C190.585358,12.607767 184.796021,12.607767 179.006042,12.171724 
	C179.003601,8.157122 179.001801,4.578561 179.000000,1.000000 
z"/>
<path fill="#4F6773" opacity="1.000000" stroke="none" 
	d="
M12.000000,61.000000 
	C8.353239,61.000000 4.706478,61.000000 1.057818,60.999977 
	C1.055919,40.999939 1.055919,20.999926 1.055919,1.000000 
	C5.090117,1.000000 9.068397,1.000000 13.523354,1.461938 
	C13.994528,6.169675 13.989026,10.415474 13.559061,14.723150 
	C11.422574,14.871123 9.710550,14.957219 7.680792,15.098145 
	C6.649836,16.098982 5.936615,17.044991 5.164731,18.456820 
	C5.071469,24.368101 5.359970,29.840200 4.913854,35.251736 
	C4.442275,40.972141 6.066127,44.852505 11.990318,46.665634 
	C11.995693,51.745594 11.997846,56.372799 12.000000,61.000000 
z"/>
<path fill="#384558" opacity="1.000000" stroke="none" 
	d="
M116.000000,1.000000 
	C124.020905,1.000000 132.041809,1.000000 140.531525,1.456716 
	C141.341873,5.612051 141.683395,9.310671 142.004333,13.466843 
	C141.925583,17.287313 141.867416,20.650234 141.517166,23.884111 
	C139.304291,22.213518 137.383499,20.671967 135.045792,19.098095 
	C129.928787,16.776516 125.336792,15.192803 120.511581,19.101936 
	C119.619804,19.824398 117.533340,19.072199 115.998703,18.532650 
	C115.999420,12.376447 115.999710,6.688223 116.000000,1.000000 
z"/>
<path fill="#364256" opacity="1.000000" stroke="none" 
	d="
M153.000000,61.000000 
	C143.979111,61.000000 134.958206,61.000000 125.468658,60.533070 
	C125.041725,55.326275 125.083450,50.586414 125.531326,45.856636 
	C127.312386,45.904415 128.687302,45.942108 130.500641,46.024357 
	C140.080597,46.341362 143.441589,42.840065 140.252182,35.602894 
	C138.927704,32.597462 140.013641,31.469889 141.864777,30.406506 
	C141.919662,36.405922 141.919662,41.936184 141.919662,48.102165 
	C145.816574,48.102165 148.910339,48.102165 152.002884,48.548161 
	C152.334442,52.996105 152.667221,56.998051 153.000000,61.000000 
z"/>
<path fill="#4A5F6D" opacity="1.000000" stroke="none" 
	d="
M48.000000,61.000000 
	C40.645748,61.000000 33.291496,61.000000 25.468622,60.533241 
	C24.998493,55.053967 24.996986,50.041443 25.404877,45.036583 
	C30.386505,46.202812 34.809586,45.991058 39.337196,43.773376 
	C41.120338,44.301121 42.562782,44.664932 44.343040,45.110443 
	C45.790676,45.432308 46.900494,45.672478 48.341076,45.919525 
	C49.098507,45.827206 49.525173,45.728008 50.205421,45.499313 
	C51.665386,45.193523 52.871761,45.017231 53.941448,45.198681 
	C47.763626,47.071812 47.321758,51.505196 47.971127,56.589687 
	C48.156021,58.037407 47.999798,59.528694 48.000000,61.000000 
z"/>
<path fill="#30394F" opacity="1.000000" stroke="none" 
	d="
M153.468643,61.000000 
	C152.667221,56.998051 152.334442,52.996105 152.467529,48.483734 
	C161.290329,48.017006 169.647263,48.060699 178.004181,48.104389 
	C178.002777,52.094898 178.001389,56.085411 178.000000,60.537960 
	C169.979095,61.000000 161.958191,61.000000 153.468643,61.000000 
z"/>
<path fill="#3C4A5C" opacity="1.000000" stroke="none" 
	d="
M115.531601,1.000000 
	C115.999710,6.688223 115.999420,12.376447 115.575958,18.541563 
	C113.361900,19.284622 111.561455,19.810722 109.782753,19.745359 
	C107.927322,19.677177 105.944412,19.356585 104.282143,18.579599 
	C101.406563,17.235491 98.735535,15.453781 95.990501,13.452085 
	C96.001534,9.032356 96.000771,5.016178 96.000000,1.000000 
	C102.354401,1.000000 108.708794,1.000000 115.531601,1.000000 
z"/>
<path fill="#4A5F6D" opacity="1.000000" stroke="none" 
	d="
M27.000000,1.000000 
	C32.688042,1.000000 38.376080,1.000000 44.531986,1.467894 
	C44.997749,7.613368 44.995651,13.290948 44.628422,19.056007 
	C39.050125,22.574663 34.076771,19.828583 28.983494,18.106548 
	C28.280432,12.106911 27.640215,6.553455 27.000000,1.000000 
z"/>
<path fill="#30394F" opacity="1.000000" stroke="none" 
	d="
M178.531342,1.000000 
	C179.001801,4.578561 179.003601,8.157122 178.542633,12.248573 
	C169.725937,12.714620 161.371994,12.667774 153.015076,12.184069 
	C153.008057,8.164805 153.004028,4.582403 153.000000,1.000000 
	C161.354233,1.000000 169.708466,1.000000 178.531342,1.000000 
z"/>
<path fill="#465A69" opacity="1.000000" stroke="none" 
	d="
M44.993553,18.968529 
	C44.995651,13.290948 44.997749,7.613368 44.999924,1.467894 
	C50.688042,1.000000 56.376080,1.000000 62.532013,1.462654 
	C62.659012,6.860037 62.318115,11.794765 61.552948,16.780544 
	C59.419922,16.884184 57.711163,16.936771 55.678314,17.049946 
	C54.601070,18.072088 53.847919,19.033642 52.844543,20.208918 
	C50.060730,19.937937 47.527138,19.453232 44.993553,18.968529 
z"/>
<path fill="#435565" opacity="1.000000" stroke="none" 
	d="
M61.977222,16.729492 
	C62.318115,11.794765 62.659012,6.860037 62.999954,1.462654 
	C67.689255,1.000000 72.378510,1.000000 77.560165,1.419517 
	C78.026955,7.805851 78.001343,13.772667 77.534744,19.790989 
	C73.019989,19.297192 68.946205,18.751886 64.713699,17.959572 
	C64.035202,17.469702 63.515430,17.226835 62.739475,16.926636 
	C62.314606,16.822701 62.145912,16.776096 61.977222,16.729492 
z"/>
<path fill="#405060" opacity="1.000000" stroke="none" 
	d="
M77.975723,19.739483 
	C78.001343,13.772667 78.026955,7.805851 78.026291,1.419517 
	C83.688042,1.000000 89.376083,1.000000 95.532059,1.000000 
	C96.000771,5.016178 96.001534,9.032356 95.553192,13.483747 
	C86.893814,14.051693 86.795349,14.137794 86.720413,21.174683 
	C83.617897,20.810234 80.796814,20.274858 77.975723,19.739483 
z"/>
<path fill="#3B485B" opacity="1.000000" stroke="none" 
	d="
M125.125175,45.846550 
	C125.083450,50.586414 125.041725,55.326275 125.000000,60.533070 
	C119.311958,61.000000 113.623917,61.000000 107.467941,60.532326 
	C107.034103,54.969204 107.068207,49.873756 107.308960,44.814728 
	C107.515610,44.851143 107.931091,44.916454 108.057098,45.033813 
	C108.418617,44.997646 108.654129,44.844124 109.200348,44.609123 
	C114.715767,44.967281 119.920471,45.406914 125.125175,45.846550 
z"/>
<path fill="#455867" opacity="1.000000" stroke="none" 
	d="
M48.467941,61.000000 
	C47.999798,59.528694 48.156021,58.037407 47.971127,56.589687 
	C47.321758,51.505196 47.763626,47.071812 54.246437,45.286514 
	C59.582199,44.227966 63.027176,46.639961 65.987686,50.580605 
	C65.994438,54.353634 65.997215,57.676815 66.000000,61.000000 
	C60.311958,61.000000 54.623920,61.000000 48.467941,61.000000 
z"/>
<path fill="#4D6471" opacity="1.000000" stroke="none" 
	d="
M24.995481,45.028923 
	C24.996986,50.041443 24.998493,55.053967 25.000000,60.533241 
	C20.975456,61.000000 16.950911,61.000000 12.463182,61.000000 
	C11.997846,56.372799 11.995693,51.745594 12.399750,46.617241 
	C14.331484,45.688934 15.839974,44.993694 17.386398,44.895432 
	C19.909744,44.735100 22.457832,44.964157 24.995481,45.028923 
z"/>
<path fill="#4C6370" opacity="1.000000" stroke="none" 
	d="
M26.536816,1.000000 
	C27.640215,6.553455 28.280432,12.106911 28.593109,18.074673 
	C27.492935,18.412741 26.720299,18.336502 25.878853,17.991329 
	C25.544952,17.478619 25.279858,17.234838 24.767693,16.691149 
	C21.008253,15.814583 17.495890,15.237927 13.983524,14.661273 
	C13.989026,10.415474 13.994528,6.169675 14.000015,1.461938 
	C18.024544,1.000000 22.049089,1.000000 26.536816,1.000000 
z"/>
<path fill="#3D4C5E" opacity="1.000000" stroke="none" 
	d="
M107.102310,44.778309 
	C107.068207,49.873756 107.034103,54.969204 107.000000,60.532326 
	C102.975456,61.000000 98.950912,61.000000 94.463120,60.534668 
	C93.994392,55.431179 93.988907,50.793026 94.333603,46.076775 
	C98.823296,45.591892 102.962807,45.185101 107.102310,44.778309 
z"/>
<path fill="#405060" opacity="1.000000" stroke="none" 
	d="
M93.983421,46.154869 
	C93.988907,50.793026 93.994392,55.431179 93.999939,60.534668 
	C90.307091,61.000000 86.614182,61.000000 82.460541,60.544868 
	C82.271591,56.236553 82.543365,52.383373 82.948967,48.269440 
	C83.857742,46.647137 84.632683,45.285580 85.825844,43.935978 
	C88.823845,44.683575 91.403633,45.419224 93.983421,46.154869 
z"/>
<path fill="#425364" opacity="1.000000" stroke="none" 
	d="
M82.815132,48.530190 
	C82.543365,52.383373 82.271591,56.236553 81.999908,60.544868 
	C76.977905,61.000000 71.955818,61.000000 66.466858,61.000000 
	C65.997215,57.676815 65.994438,54.353634 66.408646,50.557625 
	C67.948059,50.099865 69.070480,50.114925 70.446533,50.432518 
	C74.738487,50.000095 78.776810,49.265144 82.815132,48.530190 
z"/>
<path fill="#3B3F53" opacity="1.000000" stroke="none" 
	d="
M152.539368,1.000000 
	C153.004028,4.582403 153.008057,8.164805 152.562027,12.262394 
	C148.749619,12.854817 145.387253,12.932055 142.024902,13.009293 
	C141.683395,9.310671 141.341873,5.612051 141.000183,1.456716 
	C144.692902,1.000000 148.385818,1.000000 152.539368,1.000000 
z"/>
<path fill="#DF484A" opacity="1.000000" stroke="none" 
	d="
M142.004333,13.466843 
	C145.387253,12.932055 148.749619,12.854817 152.565002,12.699255 
	C161.371994,12.667774 169.725937,12.714620 178.543274,12.684616 
	C184.796021,12.607767 190.585358,12.607767 196.699326,12.607767 
	C196.699326,24.576313 196.699326,35.825794 196.699326,47.972061 
	C190.783020,47.972061 184.857773,47.972061 178.468353,48.038223 
	C169.647263,48.060699 161.290329,48.017006 152.468750,48.037743 
	C148.910339,48.102165 145.816574,48.102165 141.919662,48.102165 
	C141.919662,41.936184 141.919662,36.405922 141.911499,29.986031 
	C141.871994,27.401989 141.840622,25.707571 141.809250,24.013155 
	C141.867416,20.650234 141.925583,17.287313 142.004333,13.466843 
M172.917496,25.039124 
	C172.286423,25.895447 171.176620,26.716858 171.111176,27.614426 
	C170.886536,30.694643 171.027832,33.801544 171.212540,37.438313 
	C171.470261,37.946091 171.727966,38.453865 171.513000,39.608349 
	C171.343887,41.499458 171.174774,43.390564 170.955231,45.845673 
	C178.525284,45.845673 185.480148,45.960430 192.423401,45.728058 
	C193.527695,45.691101 194.579727,44.093410 195.655930,43.217281 
	C194.500244,42.417004 193.421936,41.117107 192.172272,40.923546 
	C189.789276,40.554443 187.308502,40.816448 184.236252,40.816448 
	C184.236252,36.909714 184.143723,33.628506 184.262863,30.355001 
	C184.376724,27.226458 183.792542,23.517653 185.280563,21.194818 
	C186.226044,19.718889 190.447189,20.520231 193.091431,19.864767 
	C194.135162,19.606049 194.885620,18.164173 195.769608,17.261028 
	C194.914871,16.501650 194.075684,15.104633 193.202927,15.083345 
	C185.942657,14.906248 178.676178,14.982899 171.725845,14.982899 
	C169.733810,19.670815 171.495087,22.204622 174.646057,24.441645 
	C174.342743,24.684919 174.039444,24.928194 172.917496,25.039124 
M168.593613,36.640717 
	C168.211365,32.541248 167.829117,28.441776 166.904861,23.942219 
	C166.597458,23.619410 166.290070,23.296598 166.574265,22.520283 
	C167.567108,20.356478 168.559937,18.192673 169.955704,15.150723 
	C162.158615,15.150723 156.081329,15.150723 149.143066,15.014667 
	C147.570328,15.111875 145.997604,15.209082 144.390396,15.308420 
	C144.390396,23.278603 144.390396,30.675331 144.390396,38.004902 
	C152.932159,39.724834 153.255310,39.486183 153.231873,31.379869 
	C153.223724,28.560358 152.948914,25.731823 153.123825,22.927858 
	C153.172943,22.140160 154.387115,21.425137 155.213364,21.645519 
	C155.232758,24.622986 155.323685,27.602180 155.251892,30.577446 
	C155.176590,33.698547 155.871201,37.381260 154.439667,39.725811 
	C153.561142,41.164665 149.285675,40.379898 146.612762,40.953381 
	C145.671066,41.155426 144.359924,42.391933 144.311249,43.220394 
	C144.263107,44.039890 145.576706,45.673058 146.324921,45.692055 
	C153.715515,45.879665 161.112762,45.805500 169.260559,45.805500 
	C168.749130,43.062904 168.371567,41.038166 168.011261,38.443661 
	C168.021439,38.064236 168.031601,37.684807 168.593613,36.640717 
M194.939285,22.455181 
	C193.135712,22.305874 191.333725,22.133120 189.528244,22.012167 
	C185.829529,21.764383 185.765564,24.569811 186.354691,26.708052 
	C187.450302,30.684561 182.799423,36.607609 189.351288,38.535503 
	C194.590286,40.077080 195.760590,38.603752 195.746994,33.092709 
	C195.738831,29.779678 195.572601,26.467039 194.939285,22.455181 
z"/>
<path fill="#313634" opacity="1.000000" stroke="none" 
	d="
M70.192902,50.129982 
	C69.070480,50.114925 67.948059,50.099865 66.404678,50.107780 
	C63.027176,46.639961 59.582199,44.227966 54.383125,44.928772 
	C52.871761,45.017231 51.665386,45.193523 50.126656,45.282768 
	C49.199638,45.434692 48.604973,45.673672 48.010307,45.912651 
	C46.900494,45.672478 45.790676,45.432308 44.272282,44.769939 
	C42.580524,41.865307 41.050671,41.009075 38.996494,43.609444 
	C34.809586,45.991058 30.386505,46.202812 25.404877,45.036583 
	C22.457832,44.964157 19.909744,44.735100 17.386398,44.895432 
	C15.839974,44.993694 14.331484,45.688934 12.396528,46.164478 
	C6.066127,44.852505 4.442275,40.972141 4.913854,35.251736 
	C5.359970,29.840200 5.071469,24.368101 5.495717,18.428883 
	C6.589753,16.971189 7.294140,16.007252 7.998528,15.043315 
	C9.710550,14.957219 11.422574,14.871123 13.559061,14.723150 
	C17.495890,15.237927 21.008253,15.814583 24.561089,16.929794 
	C24.749514,18.382145 24.897470,19.295935 25.045425,20.209726 
	C25.346172,19.559906 25.646917,18.910084 25.947662,18.260262 
	C26.720299,18.336502 27.492935,18.412741 28.655956,18.520855 
	C34.076771,19.828583 39.050125,22.574663 44.628418,19.056007 
	C47.527138,19.453232 50.060730,19.937937 53.206375,20.211632 
	C54.545422,20.000212 55.272404,19.999802 56.176868,20.162224 
	C56.354347,20.325058 56.709332,20.650694 56.625877,21.012928 
	C55.871094,23.521729 54.742901,25.650566 54.658730,27.819912 
	C54.576843,29.930298 55.951569,32.071251 56.012226,34.217838 
	C56.220192,41.577637 57.882736,42.832527 65.732872,40.478447 
	C65.402588,39.072392 65.138794,37.597160 64.701706,36.175198 
	C64.115799,34.269070 62.894012,32.385426 62.963295,30.530144 
	C62.993977,29.708652 65.521088,28.980389 66.910141,28.605366 
	C67.681091,32.023312 68.541000,35.027992 69.182617,38.078587 
	C69.381607,39.024681 69.180061,40.169933 68.822319,41.092304 
	C68.229065,42.621895 67.360825,44.044827 66.608421,45.512691 
	C67.032631,45.883537 67.456841,46.254383 67.881042,46.625229 
	C70.601234,46.138588 73.321419,45.651947 76.055199,45.504314 
	C76.470184,46.611885 76.871590,47.380451 77.017143,48.424046 
	C74.571831,49.176044 72.382370,49.653015 70.192902,50.129982 
M37.482056,35.960190 
	C37.647518,35.993690 37.812977,36.027187 38.248188,36.690289 
	C40.839764,40.788658 44.378548,42.793766 49.161743,40.977409 
	C53.424355,39.358734 52.978630,35.451511 52.993656,31.879524 
	C52.996456,31.214678 52.997917,30.549816 53.003002,29.884985 
	C53.038067,25.300049 50.989742,22.652506 46.491680,23.330803 
	C43.155830,23.833841 40.106731,26.238457 36.886967,27.817060 
	C34.846054,23.852205 31.529640,22.065374 27.129425,23.358765 
	C22.236202,24.797070 21.850855,28.757435 21.895210,32.930153 
	C21.942310,37.361149 23.305729,40.899792 28.330278,41.448864 
	C32.541649,41.909073 35.909061,40.681740 37.482056,35.960190 
M9.119080,18.951250 
	C9.119080,26.174627 9.119080,33.398006 9.119080,40.804497 
	C11.189268,40.804497 13.108109,40.804497 15.272731,40.804497 
	C15.442645,38.026825 15.601835,35.424477 15.795961,32.250988 
	C19.967760,33.169064 21.169632,31.381855 19.829412,27.627977 
	C18.427389,27.228907 16.991030,26.820065 15.554672,26.411222 
	C15.526600,25.968332 15.498527,25.525440 15.470453,25.082550 
	C17.315332,24.673784 19.160210,24.265017 21.481731,23.750643 
	C21.555460,22.175810 21.635258,20.471323 21.731352,18.418770 
	C17.447647,18.418770 13.666130,18.418770 9.119080,18.951250 
z"/>
<path fill="#2E3433" opacity="1.000000" stroke="none" 
	d="
M7.680792,15.098145 
	C7.294140,16.007252 6.589753,16.971189 5.554379,17.963062 
	C5.936615,17.044991 6.649836,16.098982 7.680792,15.098145 
z"/>
<path fill="#2B312F" opacity="1.000000" stroke="none" 
	d="
M94.333603,46.076775 
	C91.403633,45.419224 88.823845,44.683575 85.892342,43.484222 
	C85.941513,38.162674 86.342400,33.304836 86.810471,27.983341 
	C86.919052,25.347710 86.960442,23.175732 87.001831,21.003752 
	C86.795349,14.137794 86.893814,14.051693 95.541389,13.887299 
	C98.735535,15.453781 101.406563,17.235491 104.282143,18.579599 
	C105.944412,19.356585 107.927322,19.677177 109.782753,19.745359 
	C111.561455,19.810722 113.361900,19.284622 115.575531,19.009541 
	C117.533340,19.072199 119.619804,19.824398 120.511581,19.101936 
	C125.336792,15.192803 129.928787,16.776516 135.223511,19.408047 
	C135.650452,23.661133 135.480072,27.571835 135.318115,31.482883 
	C135.295090,32.039047 135.161133,32.650162 135.334915,33.145996 
	C137.900101,40.465485 138.316757,43.448383 130.062225,45.979805 
	C128.687302,45.942108 127.312386,45.904415 125.531326,45.856632 
	C119.920471,45.406914 114.715767,44.967281 108.962372,44.673508 
	C108.413689,44.819366 107.931091,44.916454 107.931091,44.916454 
	C107.931091,44.916454 107.515610,44.851143 107.308960,44.814728 
	C102.962807,45.185101 98.823296,45.591892 94.333603,46.076775 
M122.098038,25.848846 
	C122.084656,26.732397 122.071266,27.615946 121.555260,27.945707 
	C120.318764,24.234015 117.588440,22.870056 113.877319,23.107327 
	C110.143700,23.346037 107.715607,25.207142 106.093307,28.855000 
	C104.346558,25.010191 102.175758,21.789194 97.198410,23.212440 
	C96.886452,21.220247 96.642853,19.664631 96.433167,18.325529 
	C94.148605,18.325529 92.247391,18.325529 90.395958,18.325529 
	C90.395958,26.049179 90.395958,33.435551 90.395958,40.801556 
	C96.523430,41.027061 103.062820,43.603325 106.516411,36.004700 
	C106.543259,35.945621 106.830849,36.005054 107.192482,36.680298 
	C110.374626,41.645454 117.813232,43.527943 120.765121,39.810574 
	C120.576469,38.774376 120.349625,37.528404 120.171631,36.550713 
	C117.687515,36.199383 115.556648,35.898010 113.425781,35.596638 
	C113.517860,35.124321 113.609940,34.652004 113.702011,34.179684 
	C116.152176,34.065197 118.602333,33.950706 121.242493,33.827339 
	C121.494225,31.904673 121.727638,30.121845 122.744873,28.706955 
	C123.071571,30.571127 123.642624,32.430183 123.681763,34.300377 
	C123.834206,41.584064 125.738838,42.921139 133.402420,40.301624 
	C133.015762,38.960098 133.037781,37.091877 132.115524,36.198784 
	C129.273590,33.446739 129.285339,31.178276 132.168259,28.517385 
	C132.963058,27.783796 133.719711,25.646938 133.333084,25.229753 
	C131.607986,23.368353 129.654480,21.343124 127.375732,20.552778 
	C126.447540,20.230856 124.483719,22.894932 122.505684,24.152229 
	C122.126587,24.339752 122.047523,24.613825 122.098038,25.848846 
z"/>
<path fill="#ACAFB0" opacity="1.000000" stroke="none" 
	d="
M130.500641,46.024361 
	C138.316757,43.448383 137.900101,40.465485 135.334915,33.145996 
	C135.161133,32.650162 135.295090,32.039047 135.318115,31.482883 
	C135.480072,27.571835 135.650452,23.661133 135.640411,19.440369 
	C137.383499,20.671967 139.304291,22.213518 141.517166,23.884111 
	C141.840622,25.707571 141.871994,27.401989 141.856613,29.516878 
	C140.013641,31.469889 138.927704,32.597462 140.252182,35.602894 
	C143.441589,42.840065 140.080597,46.341362 130.500641,46.024361 
z"/>
<path fill="#2E3433" opacity="1.000000" stroke="none" 
	d="
M39.337196,43.773376 
	C41.050671,41.009075 42.580524,41.865307 43.934464,44.688244 
	C42.562782,44.664932 41.120338,44.301121 39.337196,43.773376 
z"/>
<path fill="#2E3433" opacity="1.000000" stroke="none" 
	d="
M48.341076,45.919525 
	C48.604973,45.673672 49.199638,45.434692 49.873070,45.412262 
	C49.525173,45.728008 49.098507,45.827206 48.341076,45.919525 
z"/>
<path fill="#313634" opacity="1.000000" stroke="none" 
	d="
M86.720413,21.174683 
	C86.960442,23.175732 86.919052,25.347710 86.512009,27.830082 
	C85.525139,28.293062 84.903915,28.445650 84.255905,28.221649 
	C84.414894,25.998951 85.119400,23.840923 81.508911,23.924269 
	C75.976585,22.316721 74.885605,25.715708 73.752899,29.631433 
	C73.280876,27.833788 72.808861,26.036144 72.263214,23.958094 
	C70.498688,23.958094 68.747803,23.958094 66.583618,23.908474 
	C65.083527,23.713221 63.075916,23.670067 63.046612,23.406748 
	C62.516701,18.645254 59.275513,20.457260 56.709332,20.650694 
	C56.709332,20.650694 56.354347,20.325058 56.179050,19.786066 
	C56.003304,18.494503 56.002853,17.741930 56.002407,16.989359 
	C57.711163,16.936771 59.419922,16.884184 61.552948,16.780544 
	C62.145912,16.776096 62.314606,16.822701 62.787514,17.176952 
	C63.685295,17.725260 64.278854,17.965919 64.872421,18.206579 
	C68.946205,18.751886 73.019989,19.297192 77.534744,19.790989 
	C80.796814,20.274858 83.617897,20.810234 86.720413,21.174683 
z"/>
<path fill="#2E3433" opacity="1.000000" stroke="none" 
	d="
M55.678314,17.049946 
	C56.002853,17.741930 56.003304,18.494503 56.001572,19.623232 
	C55.272404,19.999802 54.545422,20.000212 53.456600,19.997910 
	C53.847919,19.033642 54.601070,18.072088 55.678314,17.049946 
z"/>
<path fill="#2E3433" opacity="1.000000" stroke="none" 
	d="
M64.713699,17.959572 
	C64.278854,17.965919 63.685295,17.725260 63.043694,17.234283 
	C63.515430,17.226835 64.035202,17.469702 64.713699,17.959572 
z"/>
<path fill="#3D4C5E" opacity="1.000000" stroke="none" 
	d="
M108.057098,45.033813 
	C107.931091,44.916454 108.413689,44.819366 108.651657,44.754982 
	C108.654129,44.844124 108.418617,44.997646 108.057098,45.033813 
z"/>
<path fill="#2E3433" opacity="1.000000" stroke="none" 
	d="
M25.878853,17.991329 
	C25.646917,18.910084 25.346172,19.559906 25.045425,20.209726 
	C24.897470,19.295935 24.749514,18.382145 24.808161,17.229706 
	C25.279858,17.234838 25.544952,17.478619 25.878853,17.991329 
z"/>
<path fill="#AFB2B2" opacity="1.000000" stroke="none" 
	d="
M84.282684,28.598236 
	C84.903915,28.445650 85.525139,28.293062 86.444824,28.293734 
	C86.342400,33.304836 85.941513,38.162674 85.474129,43.472271 
	C84.632683,45.285580 83.857742,46.647137 82.948967,48.269440 
	C78.776810,49.265144 74.738487,50.000095 70.446533,50.432518 
	C72.382370,49.653015 74.571831,49.176044 77.335266,48.295151 
	C80.033714,41.460232 82.158203,35.029236 84.282684,28.598236 
z"/>
<path fill="#34354B" opacity="1.000000" stroke="none" 
	d="
M175.009384,23.985064 
	C171.495087,22.204622 169.733810,19.670815 171.725845,14.982899 
	C178.676178,14.982899 185.942657,14.906248 193.202927,15.083345 
	C194.075684,15.104633 194.914871,16.501650 195.769623,17.261036 
	C194.885620,18.164173 194.135162,19.606049 193.091431,19.864767 
	C190.447189,20.520231 186.226044,19.718889 185.280563,21.194818 
	C183.792542,23.517653 184.376724,27.226458 184.262863,30.355001 
	C184.143723,33.628506 184.236252,36.909714 184.236252,40.816448 
	C187.308502,40.816448 189.789276,40.554443 192.172272,40.923546 
	C193.421936,41.117107 194.500244,42.417004 195.655930,43.217278 
	C194.579727,44.093410 193.527695,45.691101 192.423401,45.728058 
	C185.480148,45.960430 178.525284,45.845673 170.955231,45.845673 
	C171.174774,43.390564 171.343887,41.499458 172.108582,39.270382 
	C179.371002,34.815060 180.205994,29.400928 175.009384,23.985064 
z"/>
<path fill="#3C3C50" opacity="1.000000" stroke="none" 
	d="
M167.994019,39.013428 
	C168.371567,41.038166 168.749130,43.062904 169.260559,45.805500 
	C161.112762,45.805500 153.715515,45.879665 146.324921,45.692055 
	C145.576706,45.673058 144.263107,44.039890 144.311249,43.220394 
	C144.359924,42.391933 145.671066,41.155426 146.612762,40.953381 
	C149.285675,40.379898 153.561142,41.164665 154.439667,39.725811 
	C155.871201,37.381260 155.176590,33.698547 155.251892,30.577446 
	C155.323685,27.602180 155.232758,24.622986 154.973206,20.865137 
	C153.071167,18.522089 149.160675,19.114565 150.004059,15.150723 
	C156.081329,15.150723 162.158615,15.150723 169.955704,15.150723 
	C168.559937,18.192673 167.567108,20.356478 165.948151,22.856718 
	C158.642853,29.079454 159.827148,36.091457 167.994019,39.013428 
z"/>
<path fill="#3E3F52" opacity="1.000000" stroke="none" 
	d="
M149.573563,15.082695 
	C149.160675,19.114565 153.071167,18.522089 154.899979,20.380768 
	C154.387115,21.425137 153.172943,22.140160 153.123825,22.927858 
	C152.948914,25.731823 153.223724,28.560358 153.231873,31.379869 
	C153.255310,39.486183 152.932159,39.724834 144.390396,38.004902 
	C144.390396,30.675331 144.390396,23.278603 144.390396,15.308420 
	C145.997604,15.209082 147.570328,15.111875 149.573563,15.082695 
z"/>
<path fill="#3F3449" opacity="1.000000" stroke="none" 
	d="
M195.208344,22.804703 
	C195.572601,26.467039 195.738831,29.779678 195.746994,33.092709 
	C195.760590,38.603752 194.590286,40.077080 189.351288,38.535503 
	C182.799423,36.607609 187.450302,30.684561 186.354691,26.708052 
	C185.765564,24.569811 185.829529,21.764383 189.528244,22.012167 
	C191.333725,22.133120 193.135712,22.305874 195.208344,22.804703 
z"/>
<path fill="#3E3A4E" opacity="1.000000" stroke="none" 
	d="
M167.446869,24.342308 
	C167.829117,28.441776 168.211365,32.541248 168.001740,36.801872 
	C161.930862,32.484596 161.940796,29.094492 167.446869,24.342308 
z"/>
<path fill="#38384D" opacity="1.000000" stroke="none" 
	d="
M171.029633,36.898273 
	C171.027832,33.801544 170.886536,30.694643 171.111176,27.614426 
	C171.176620,26.716858 172.286423,25.895447 173.557892,25.399372 
	C177.625046,31.174873 176.562820,34.908901 171.029633,36.898273 
z"/>
<path fill="#CB464A" opacity="1.000000" stroke="none" 
	d="
M167.175873,24.142263 
	C161.940796,29.094492 161.930862,32.484596 167.725830,37.134201 
	C168.031601,37.684807 168.021439,38.064236 168.002640,38.728546 
	C159.827148,36.091457 158.642853,29.079454 165.652344,23.083471 
	C166.290070,23.296598 166.597458,23.619410 167.175873,24.142263 
z"/>
<path fill="#D0464A" opacity="1.000000" stroke="none" 
	d="
M171.121094,37.168293 
	C176.562820,34.908901 177.625046,31.174873 173.967194,25.465546 
	C174.039444,24.928194 174.342743,24.684919 174.827728,24.213354 
	C180.205994,29.400928 179.371002,34.815060 172.344910,38.947029 
	C171.727966,38.453865 171.470261,37.946091 171.121094,37.168293 
z"/>
<path fill="#EDF0EC" opacity="1.000000" stroke="none" 
	d="
M36.976547,35.991135 
	C35.909061,40.681740 32.541649,41.909073 28.330278,41.448864 
	C23.305729,40.899792 21.942310,37.361149 21.895210,32.930153 
	C21.850855,28.757435 22.236202,24.797070 27.129425,23.358765 
	C31.529640,22.065374 34.846054,23.852205 36.886967,27.817060 
	C40.106731,26.238457 43.155830,23.833841 46.491680,23.330803 
	C50.989742,22.652506 53.038067,25.300049 53.003002,29.884985 
	C52.997917,30.549816 52.996456,31.214678 52.993656,31.879524 
	C52.978630,35.451511 53.424355,39.358734 49.161743,40.977409 
	C44.378548,42.793766 40.839764,40.788658 38.067284,36.132641 
	C37.472549,35.316494 37.058720,35.057991 36.644894,34.799488 
	C36.755444,35.196705 36.865993,35.593918 36.976547,35.991135 
M30.340771,29.232237 
	C29.789461,29.030775 29.238153,28.829311 28.686844,28.627848 
	C28.617037,29.036493 28.547232,29.445141 28.477427,29.853788 
	C29.016766,29.794022 29.556105,29.734255 30.340771,29.232237 
M28.715502,36.214710 
	C29.229900,36.225441 29.744337,36.237999 30.258297,36.227463 
	C30.265181,36.227322 30.266073,35.934937 30.269762,35.778954 
	C29.755548,35.769466 29.241337,35.759979 28.715502,36.214710 
z"/>
<path fill="#EEF1EC" opacity="1.000000" stroke="none" 
	d="
M66.996933,23.958094 
	C68.747803,23.958094 70.498688,23.958094 72.263214,23.958094 
	C72.808861,26.036144 73.280876,27.833788 73.752899,29.631433 
	C74.885605,25.715708 75.976585,22.316721 81.472282,24.316368 
	C79.919197,31.593597 77.980408,38.379456 76.041611,45.165310 
	C73.321419,45.651947 70.601234,46.138588 67.881042,46.625229 
	C67.456841,46.254383 67.032631,45.883537 66.608421,45.512691 
	C67.360825,44.044827 68.229065,42.621895 68.822319,41.092304 
	C69.180061,40.169933 69.381607,39.024681 69.182617,38.078587 
	C68.541000,35.027992 67.681091,32.023312 66.948196,28.181496 
	C66.993011,26.227407 66.994972,25.092751 66.996933,23.958094 
z"/>
<path fill="#EBEEE9" opacity="1.000000" stroke="none" 
	d="
M9.501846,18.685009 
	C13.666130,18.418770 17.447647,18.418770 21.731352,18.418770 
	C21.635258,20.471323 21.555460,22.175810 21.481731,23.750643 
	C19.160210,24.265017 17.315332,24.673784 15.470453,25.082550 
	C15.498527,25.525440 15.526600,25.968332 15.554672,26.411222 
	C16.991030,26.820065 18.427389,27.228907 19.829412,27.627977 
	C21.169632,31.381855 19.967760,33.169064 15.795961,32.250988 
	C15.601835,35.424477 15.442645,38.026825 15.272731,40.804497 
	C13.108109,40.804497 11.189268,40.804497 9.119080,40.804497 
	C9.119080,33.398006 9.119080,26.174627 9.501846,18.685009 
z"/>
<path fill="#E5E8E3" opacity="1.000000" stroke="none" 
	d="
M66.583618,23.908474 
	C66.994972,25.092751 66.993011,26.227407 66.953003,27.785934 
	C65.521088,28.980389 62.993977,29.708652 62.963295,30.530144 
	C62.894012,32.385426 64.115799,34.269070 64.701706,36.175198 
	C65.138794,37.597160 65.402588,39.072392 65.732872,40.478447 
	C57.882736,42.832527 56.220192,41.577637 56.012226,34.217838 
	C55.951569,32.071251 54.576843,29.930298 54.658730,27.819912 
	C54.742901,25.650566 55.871094,23.521729 56.625877,21.012928 
	C59.275513,20.457260 62.516701,18.645254 63.046612,23.406748 
	C63.075916,23.670067 65.083527,23.713221 66.583618,23.908474 
z"/>
<path fill="#2E3433" opacity="1.000000" stroke="none" 
	d="
M76.055206,45.504314 
	C77.980408,38.379456 79.919197,31.593597 81.894623,24.415642 
	C85.119400,23.840923 84.414894,25.998951 84.255905,28.221649 
	C82.158203,35.029236 80.033714,41.460232 77.591110,48.020126 
	C76.871590,47.380451 76.470184,46.611885 76.055206,45.504314 
z"/>
<path fill="#EDF0EB" opacity="1.000000" stroke="none" 
	d="
M37.229301,35.975662 
	C36.865993,35.593918 36.755444,35.196705 36.644894,34.799488 
	C37.058720,35.057991 37.472549,35.316494 37.932404,35.817837 
	C37.812977,36.027187 37.647518,35.993690 37.229301,35.975662 
z"/>
<path fill="#ECEFEA" opacity="1.000000" stroke="none" 
	d="
M106.996689,36.009151 
	C106.830849,36.005054 106.543259,35.945621 106.516411,36.004700 
	C103.062820,43.603325 96.523430,41.027061 90.395958,40.801556 
	C90.395958,33.435551 90.395958,26.049179 90.395958,18.325529 
	C92.247391,18.325529 94.148605,18.325529 96.433167,18.325529 
	C96.642853,19.664631 96.886452,21.220247 97.198410,23.212440 
	C102.175758,21.789194 104.346558,25.010191 106.707916,29.166367 
	C107.213905,31.654875 107.105293,33.832012 106.996689,36.009151 
z"/>
<path fill="#EBEEE9" opacity="1.000000" stroke="none" 
	d="
M107.094582,36.344727 
	C107.105293,33.832012 107.213905,31.654875 107.073524,29.196781 
	C107.715607,25.207142 110.143700,23.346037 113.877319,23.107327 
	C117.588440,22.870056 120.318764,24.234015 121.780945,28.182224 
	C122.006638,28.418739 121.961052,28.339018 121.961052,28.339018 
	C121.727638,30.121845 121.494225,31.904673 121.242493,33.827339 
	C118.602333,33.950706 116.152176,34.065197 113.702011,34.179684 
	C113.609940,34.652004 113.517860,35.124321 113.425781,35.596638 
	C115.556648,35.898010 117.687515,36.199383 120.171631,36.550713 
	C120.349625,37.528404 120.576469,38.774376 120.765121,39.810574 
	C117.813232,43.527943 110.374626,41.645454 107.094582,36.344727 
z"/>
<path fill="#EEF1EC" opacity="1.000000" stroke="none" 
	d="
M122.352966,28.522987 
	C121.961052,28.339018 122.006638,28.418739 122.032257,28.459118 
	C122.071266,27.615946 122.084656,26.732397 122.324150,25.302860 
	C122.725395,24.593733 122.872337,24.408255 122.991081,24.200439 
	C124.483719,22.894932 126.447540,20.230856 127.375732,20.552778 
	C129.654480,21.343124 131.607986,23.368353 133.333084,25.229753 
	C133.719711,25.646938 132.963058,27.783796 132.168259,28.517385 
	C129.285339,31.178276 129.273590,33.446739 132.115524,36.198784 
	C133.037781,37.091877 133.015762,38.960098 133.402420,40.301624 
	C125.738838,42.921139 123.834206,41.584064 123.681763,34.300377 
	C123.642624,32.430183 123.071571,30.571127 122.352966,28.522987 
z"/>
<path fill="#EBEEE9" opacity="1.000000" stroke="none" 
	d="
M122.748383,24.176334 
	C122.872337,24.408255 122.725395,24.593733 122.409378,24.865660 
	C122.047523,24.613825 122.126587,24.339752 122.748383,24.176334 
z"/>
<path fill="#EDF0EB" opacity="1.000000" stroke="none" 
	d="
M30.218107,29.453363 
	C29.556105,29.734255 29.016766,29.794022 28.477425,29.853786 
	C28.547232,29.445141 28.617037,29.036493 28.686844,28.627850 
	C29.238153,28.829311 29.789461,29.030775 30.218107,29.453363 
z"/>
<path fill="#EDF0EB" opacity="1.000000" stroke="none" 
	d="
M28.721313,35.982601 
	C29.241337,35.759979 29.755548,35.769466 30.269760,35.778954 
	C30.266073,35.934937 30.265181,36.227322 30.258297,36.227463 
	C29.744337,36.237999 29.229900,36.225441 28.721313,35.982601 
z"/>
</svg>